# xmcd
#
# Track frame offsets:
#	150
#	12300
#	35246
#	50257
#	69305
#	86637
#	106942
#	124789
#	138608
#	149772
#	166648
#	179157
#	192350
#	208986
#	226137
#
# Disc length: 3249 seconds
#
# Revision: 0
# Processed by: cddbd v1.5.2PL0 Copyright (c) Steve Scherf et al.
# Submitted via: EasyCDDAExtractor 9.0.0.1
#
DISCID=df0caf0f
DTITLE=Edgar Lacey - Star Crazy
DYEAR=2003
DGENRE=Folk-Rock
TTITLE0=Star Crazy
TTITLE1=Cute Lil' Darlin'
TTITLE2=Blues for San Antone
TTITLE3=Road Goes On
TTITLE4=Angelita
TTITLE5=Twistin' Through the Delta
TTITLE6=Findin' the Fantasy
TTITLE7=Chain Lightnin'
TTITLE8=Life's Dreams
TTITLE9=Blues Matinee
TTITLE10=Change the World
TTITLE11=Head on tight
TTITLE12=Rock n' Roll Saturday Night
TTITLE13=Icy Road
TTITLE14=Song on the Air
EXTD=
EXTT0=
EXTT1=
EXTT2=
EXTT3=
EXTT4=
EXTT5=
EXTT6=
EXTT7=
EXTT8=
EXTT9=
EXTT10=
EXTT11=
EXTT12=
EXTT13=
EXTT14=
PLAYORDER=
